<svg width="153" height="185" viewBox="0 0 153 185" fill="none" xmlns="http://www.w3.org/2000/svg">
<path fill-rule="evenodd" clip-rule="evenodd" d="M125.338 0.237261C124.63 -0.193192 123.632 -0.0217171 123.108 0.62026L106.567 20.9002C97.9491 14.6672 87.3974 11 76 11C64.7026 11 54.2361 14.6032 45.6598 20.7368L29.8759 1.38442C29.3523 0.742439 28.354 0.570964 27.6462 1.00142C26.9384 1.43187 26.7891 2.30125 27.3127 2.94322L43.2908 22.5338C34.4401 29.6478 27.901 39.5843 25 51H127C124.122 39.6755 117.664 29.8067 108.921 22.7049C108.956 22.6697 108.989 22.6328 109.021 22.5941L125.671 2.17907C126.195 1.53709 126.045 0.667714 125.338 0.237261ZM63 31.5C63 35.6421 59.866 39 56 39C52.134 39 49 35.6421 49 31.5C49 27.3579 52.134 24 56 24C59.866 24 63 27.3579 63 31.5ZM104 31.5C104 35.6421 100.866 39 97 39C93.134 39 90 35.6421 90 31.5C90 27.3579 93.134 24 97 24C100.866 24 104 27.3579 104 31.5ZM25 57V140C25 148.284 31.7157 155 40 155H43V176.375C43 181.138 46.8615 185 51.625 185C56.3885 185 60.25 181.138 60.25 176.375V155H88.75V176.375C88.75 181.138 92.6115 185 97.375 185C102.138 185 106 181.138 106 176.375V155H112C120.284 155 127 148.284 127 140V57H25ZM9.93488 69C4.448 69 0 73.448 0 78.9349V119.065C0 124.552 4.448 129 9.93488 129C15.4218 129 19.8698 124.552 19.8698 119.065V78.9349C19.8698 73.448 15.4218 69 9.93488 69ZM142.848 69C137.48 69 133.127 73.3522 133.127 78.7208V119.279C133.127 124.648 137.48 129 142.848 129C148.217 129 152.569 124.648 152.569 119.279V78.7208C152.569 73.3522 148.217 69 142.848 69Z" fill="#A4C639"/>
</svg>
